#N canvas 710 83 323 153 12;
#X obj 14 115 bng 15 250 50 0 play_note empty empty 17 7 0 10 -262144
-1 -1;
#X obj 12 42 hsl 128 15 24 72 0 1 note_val empty empty -2 -8 0 10 -262144
-1 -1 4200 1;
#X obj 12 81 hsl 128 15 24 300 0 1 dur_val empty empty -2 -8 0 10 -262144
-1 -1 4600 1;
#X text 40 114 Play Note;
#N canvas 142 169 293 208 make_note 0;
#X floatatom 14 68 5 0 0 0 - - -;
#X obj 14 130 makenote;
#X floatatom 102 68 5 0 0 0 - - -;
#X obj 14 169 noteout;
#X msg 147 67 1;
#X floatatom 147 91 5 0 0 0 - - -;
#X msg 63 72 127;
#X floatatom 63 96 5 0 0 0 - - -;
#X obj 63 37 loadbang;
#X obj 14 13 r note_val;
#X obj 102 13 r dur_val;
#X obj 170 43 r play_note;
#X connect 0 0 1 0;
#X connect 1 0 3 0;
#X connect 1 1 3 1;
#X connect 2 0 1 2;
#X connect 4 0 5 0;
#X connect 5 0 3 2;
#X connect 6 0 7 0;
#X connect 7 0 1 1;
#X connect 8 0 6 0;
#X connect 9 0 0 0;
#X connect 10 0 2 0;
#X connect 11 0 4 0;
#X connect 11 0 2 0;
#X connect 11 0 0 0;
#X connect 11 0 6 0;
#X restore 12 5 pd make_note;
#X text 197 82 Note Duration;
#X text 199 40 Note Value;
#X floatatom 143 41 3 0 0 0 - note_val -;
#X floatatom 143 79 5 0 0 0 - dur_val -;
