#N canvas 685 249 700 442 10;
#X obj 33 37 notein;
#X obj 33 69 poly 1 1;
#X obj 33 100 pack 0 0 0;
#X obj 33 136 route 1;
#X obj 33 167 unpack 0 0;
#X obj 33 200 mtof;
#X obj 33 239 phasor~;
#X obj 33 270 *~;
#X obj 33 301 *~;
#X obj 96 239 / 127;
#X obj 132 283 hsl 128 15 0 1 0 0 empty empty Volume -2 -8 0 10 -262144
-1 -1 7000 1;
#X obj 33 330 dac~;
#X connect 0 0 1 0;
#X connect 0 1 1 1;
#X connect 1 0 2 0;
#X connect 1 1 2 1;
#X connect 1 2 2 2;
#X connect 2 0 3 0;
#X connect 3 0 4 0;
#X connect 4 0 5 0;
#X connect 4 1 9 0;
#X connect 5 0 6 0;
#X connect 6 0 7 0;
#X connect 7 0 8 0;
#X connect 8 0 11 0;
#X connect 8 0 11 1;
#X connect 9 0 7 1;
#X connect 10 0 8 1;
