#N canvas 513 444 785 383 10;
#X obj 122 21 inlet;
#X obj 80 22 r r;
#X obj 228 28 r a;
#X obj 283 30 r d;
#X obj 343 30 r s;
#X obj 122 42 sel 0;
#X obj 169 66 t b b b;
#X msg 113 90 stop;
#X obj 129 144 0;
#X obj 130 231 line~;
#X obj 130 257 outlet~;
#X obj 52 144 pack 0 0;
#X text 54 127 Release;
#X obj 172 145 pack 1 0;
#X text 180 129 Attack;
#X obj 255 65 + 1;
#X obj 268 135 delay;
#X obj 281 162 pack 0 0 0;
#X obj 232 190 route 0;
#X text 304 179 Decay;
#X text 371 87 This object remains the same. For a detailed explanation
\, please refer to the same object in the stage_2 folder.;
#X connect 0 0 5 0;
#X connect 1 0 11 1;
#X connect 2 0 13 1;
#X connect 2 0 15 0;
#X connect 3 0 17 2;
#X connect 4 0 17 1;
#X connect 5 0 7 0;
#X connect 5 0 11 0;
#X connect 5 1 6 0;
#X connect 6 0 16 0;
#X connect 6 1 13 0;
#X connect 6 2 8 0;
#X connect 7 0 16 0;
#X connect 8 0 9 0;
#X connect 9 0 10 0;
#X connect 11 0 9 0;
#X connect 13 0 9 0;
#X connect 15 0 16 1;
#X connect 16 0 17 0;
#X connect 17 0 18 0;
#X connect 18 0 9 0;
