#N canvas 740 377 700 442 10;
#X obj 33 37 notein;
#X obj 33 100 pack 0 0 0;
#X obj 117 264 *~;
#X obj 305 299 hsl 128 15 0 1 0 0 empty empty Volume -2 -8 0 10 -262144
-1 -1 4700 1;
#X obj 117 293 dac~;
#X obj 300 99 vsl 15 128 10 1010 1 0 empty empty A 0 -9 0 10 -262144
-1 -1 700 1;
#X obj 300 239 - 10;
#X obj 335 99 vsl 15 128 10 1010 1 0 empty empty D 0 -9 0 10 -262144
-1 -1 800 1;
#X obj 335 239 - 10;
#X obj 370 99 vsl 15 128 0.1 1 1 0 empty empty S 0 -9 0 10 -262144
-1 -1 9600 1;
#X obj 405 100 vsl 15 128 10 1010 1 0 empty empty R 0 -9 0 10 -262144
-1 -1 2000 1;
#X obj 370 239 - 0.1;
#X obj 335 260 s d;
#X obj 370 260 s s;
#X obj 407 260 s r;
#X obj 300 260 s a;
#X obj 407 239 - 10;
#X obj 14 174 note;
#X obj 33 69 poly 8 1;
#X obj 34 136 route 1 2 3 4 5 6 7 8;
#X obj 45 174 note;
#X obj 107 174 note;
#X obj 76 174 note;
#X obj 138 174 note;
#X obj 169 174 note;
#X obj 200 174 note;
#X obj 231 174 note;
#X connect 0 0 18 0;
#X connect 0 1 18 1;
#X connect 1 0 19 0;
#X connect 2 0 4 0;
#X connect 2 0 4 1;
#X connect 3 0 2 1;
#X connect 5 0 6 0;
#X connect 6 0 15 0;
#X connect 7 0 8 0;
#X connect 8 0 12 0;
#X connect 9 0 11 0;
#X connect 10 0 16 0;
#X connect 11 0 13 0;
#X connect 16 0 14 0;
#X connect 17 0 2 0;
#X connect 18 0 1 0;
#X connect 18 1 1 1;
#X connect 18 2 1 2;
#X connect 19 0 17 0;
#X connect 19 1 20 0;
#X connect 19 2 22 0;
#X connect 19 3 21 0;
#X connect 19 4 23 0;
#X connect 19 5 24 0;
#X connect 19 6 25 0;
#X connect 19 7 26 0;
#X connect 20 0 2 0;
#X connect 21 0 2 0;
#X connect 22 0 2 0;
#X connect 23 0 2 0;
#X connect 24 0 2 0;
#X connect 25 0 2 0;
#X connect 26 0 2 0;
