#N canvas 190 251 1054 442 10;
#X obj 33 37 notein;
#X obj 33 100 pack 0 0 0;
#X obj 117 264 *~;
#X obj 485 307 hsl 128 15 0 1 0 0 empty empty Volume -2 -8 0 10 -262144
-1 -1 0 1;
#X obj 117 293 dac~;
#X obj 480 99 vsl 15 128 10 1010 1 0 empty empty A 0 -9 0 10 -262144
-1 -1 0 1;
#X obj 480 242 - 10;
#X obj 515 99 vsl 15 128 10 1010 1 0 empty empty D 0 -9 0 10 -262144
-1 -1 0 1;
#X obj 515 242 - 10;
#X obj 550 99 vsl 15 128 0.1 1 1 0 empty empty S 0 -9 0 10 -262144
-1 -1 0 1;
#X obj 585 100 vsl 15 128 10 1010 1 0 empty empty R 0 -9 0 10 -262144
-1 -1 0 1;
#X obj 550 242 - 0.1;
#X obj 515 268 s d;
#X obj 550 268 s s;
#X obj 587 268 s r;
#X obj 480 268 s a;
#X obj 587 242 - 10;
#X obj 14 174 note;
#X obj 33 69 poly 8 1;
#X obj 34 136 route 1 2 3 4 5 6 7 8;
#X obj 45 174 note;
#X obj 107 174 note;
#X obj 76 174 note;
#X obj 138 174 note;
#X obj 169 174 note;
#X obj 200 174 note;
#X obj 231 174 note;
#X text 91 44 Now "poly" has 8 as the first argument \, meaning 8 voice
values can now be assigned. Voice stealing is still enabled;
#X text 105 107 "pack" is the same here \, but route now has to deal
with 8 lists simultaneosly.;
#X text 19 337 Here we have 8 "note" objects which are defined by the
contents of "note.pd". Defining our own objects is called "Abstraction"
;
#X text 460 333 Volume control works the same way;
#X text 634 87 Here are our envelope controls. A = Attack (time to
reach max volume) D = Decay (time from max to sustain volume) S = Sustain
(sustain volume level) R = Release (time to reach 0 volume after releasing
note) All of these sliders use a log scale \, so they need the subtract
objects to ensure they can reach 0 log sliders give us more control
over the smaller values. These controls also utilize "send" objects
(abbreviated as "s") The argument we give to an "s" object defines
the name of the sent value. We can then use a receive ("r") object
to get that signal as an input in another file or even within the same
file to avoid drawing wires all over the place.;
