#N canvas 856 381 450 300 10;
#X obj 16 18 inlet;
#X obj 16 228 outlet~;
#X msg 16 39 bang;
#X obj 16 80 f;
#X obj 16 101 t b f;
#X obj 65 39 r start;
#X obj 16 200 line~;
#X obj 120 39 r end;
#X obj 163 40 r time;
#X obj 61 135 pack 0 0 0;
#X obj 61 163 route 0;
#X connect 0 0 2 0;
#X connect 2 0 3 0;
#X connect 3 0 4 0;
#X connect 4 0 9 0;
#X connect 4 1 6 0;
#X connect 5 0 3 1;
#X connect 6 0 1 0;
#X connect 7 0 9 1;
#X connect 8 0 9 2;
#X connect 9 0 10 0;
#X connect 10 0 6 0;
