#N canvas 641 210 743 300 10;
#X obj 28 11 inlet;
#X obj 28 37 unpack 0 0;
#X obj 28 61 mtof;
#X obj 28 85 phasor~;
#X obj 28 172 *~;
#X obj 28 228 outlet~;
#X obj 136 113 / 127;
#X obj 28 144 *~;
#X obj 137 80 sel 0;
#X obj 28 113 -~ 0.5;
#X obj 148 167 r q;
#X obj 28 202 vcf~;
#X obj 96 103 adsr;
#X text 191 155 Here we use our velocity value as an input for our
filter object \, but only to know when a note is activated. What's
important is that it outputs to a "vcf~" object that defines a voltage-controlled-filter.
The first inlet is the signal \, the second defines the corner/cutoff
frequency and the third defines the Q factor. This results in a bandpass
filter!;
#X obj 177 130 filter;
#X connect 0 0 1 0;
#X connect 1 0 2 0;
#X connect 1 1 8 0;
#X connect 1 1 12 0;
#X connect 2 0 3 0;
#X connect 3 0 9 0;
#X connect 4 0 11 0;
#X connect 6 0 4 1;
#X connect 7 0 4 0;
#X connect 8 1 6 0;
#X connect 8 1 14 0;
#X connect 9 0 7 0;
#X connect 10 0 11 2;
#X connect 11 0 5 0;
#X connect 12 0 7 1;
#X connect 14 0 11 1;
